<svg width="197" height="29" viewBox="0 0 197 29" fill="none" xmlns="http://www.w3.org/2000/svg">
<path d="M21.9367 15.1905C21.9491 17.7985 21.489 20.0545 20.5562 21.9585C19.6235 23.8626 18.3386 25.3337 16.7014 26.3718C15.0643 27.4099 13.1913 27.9339 11.0824 27.944C8.97355 27.954 7.09565 27.4478 5.44873 26.4253C3.80181 25.4028 2.50296 23.944 1.55218 22.0488C0.601405 20.1537 0.119821 17.9022 0.10743 15.2943C0.095039 12.6863 0.555206 10.4303 1.48793 8.52626C2.42066 6.62219 3.70558 5.15111 5.34272 4.11301C6.97985 3.07492 8.85285 2.55086 10.9617 2.54084C13.0706 2.53082 14.9485 3.03706 16.5954 4.05955C18.2424 5.08204 19.5412 6.54084 20.492 8.43597C21.4428 10.3311 21.9243 12.5826 21.9367 15.1905ZM19.039 15.2043C19.0289 13.0632 18.6621 11.2579 17.9387 9.78832C17.2234 8.31869 16.2562 7.20845 15.0372 6.4576C13.8262 5.70672 12.4722 5.33483 10.975 5.34195C9.4779 5.34906 8.12341 5.73381 6.91159 6.49621C5.70781 7.25857 4.75123 8.37795 4.04186 9.85434C3.34053 11.3307 2.99495 13.1394 3.00512 15.2805C3.0153 17.4216 3.37805 19.2269 4.09337 20.6966C4.81674 22.1661 5.78391 23.2764 6.99488 24.0273C8.2139 24.7781 9.57198 25.15 11.0691 25.1429C12.5663 25.1357 13.9167 24.751 15.1205 23.9887C16.3323 23.2263 17.2889 22.1069 17.9902 20.6305C18.6996 19.1541 19.0492 17.3454 19.039 15.2043ZM29.3758 2.79142L29.4933 27.5184L26.6439 27.532L26.5264 2.80496L29.3758 2.79142ZM34.7121 27.4936L34.624 8.94838L37.4734 8.93484L37.5615 27.4801L34.7121 27.4936ZM36.0582 5.85062C35.5028 5.85326 35.023 5.66638 34.6187 5.28998C34.2225 4.91354 34.0231 4.4597 34.0206 3.92846C34.0181 3.39722 34.2131 2.9415 34.6057 2.56132C35.0064 2.18109 35.4844 1.98966 36.0398 1.98703C36.5952 1.98439 37.071 2.17128 37.4672 2.54772C37.8715 2.92412 38.0749 3.37794 38.0774 3.90918C38.0799 4.44043 37.8808 4.89616 37.4802 5.27638C37.0876 5.65657 36.6136 5.84798 36.0582 5.85062ZM57.8569 8.83799L51.0871 27.4158L48.1894 27.4296L41.2434 8.91692L44.3343 8.90224L49.5238 23.6562L49.717 23.6552L54.766 8.85267L57.8569 8.83799ZM68.8192 27.7179C67.0323 27.7264 65.489 27.3393 64.1894 26.5567C62.8977 25.7659 61.8984 24.6599 61.1913 23.2385C60.4923 21.809 60.1383 20.1445 60.1292 18.2449C60.1202 16.3453 60.4584 14.6694 61.1437 13.2173C61.8371 11.7571 62.8056 10.6175 64.0494 9.79863C65.3011 8.97166 66.7641 8.55419 68.4384 8.54623C69.4043 8.54164 70.3588 8.6981 71.3021 9.01559C72.2454 9.33308 73.1051 9.8522 73.8813 10.573C74.6574 11.2857 75.2777 12.2325 75.7421 13.4136C76.2065 14.5946 76.4429 16.0504 76.4511 17.781L76.4568 18.9884L62.1615 19.0563L62.1498 16.5932L73.5474 16.5391C73.5424 15.4927 73.3287 14.56 72.9063 13.741C72.4919 12.9219 71.9012 12.2767 71.1343 11.8055C70.3754 11.3342 69.4808 11.101 68.4505 11.1059C67.3156 11.1113 66.3349 11.3976 65.5085 11.965C64.6902 12.5243 64.0618 13.2517 63.6233 14.1473C63.1848 15.0429 62.968 16.0018 62.9729 17.024L62.9807 18.666C62.9873 20.0666 63.2345 21.2527 63.722 22.2243C64.2176 23.1879 64.9013 23.9212 65.773 24.4241C66.6447 24.9191 67.656 25.1638 68.8071 25.1583C69.5556 25.1547 70.2313 25.0469 70.834 24.8348C71.4447 24.6145 71.9703 24.29 72.411 23.8613C72.8517 23.4246 73.1912 22.8837 73.4296 22.2386L76.1861 22.9982C75.9008 23.9333 75.4177 24.7566 74.7369 25.4682C74.056 26.1717 73.2135 26.7231 72.2092 27.1223C71.2049 27.5134 70.0749 27.712 68.8192 27.7179ZM80.8307 27.2745L80.7426 8.72925L83.4954 8.71617L83.5088 11.5173L83.7019 11.5164C84.0356 10.5972 84.6438 9.8497 85.5265 9.274C86.4092 8.6983 87.406 8.40782 88.5167 8.40254C88.726 8.40154 88.9876 8.40432 89.3016 8.41088C89.6155 8.41744 89.853 8.42839 90.0141 8.44372L90.0279 11.3414C89.9312 11.3177 89.7096 11.2826 89.3633 11.2359C89.025 11.1812 88.6667 11.1547 88.2883 11.1565C87.3868 11.1608 86.5828 11.3538 85.8763 11.7354C85.1778 12.109 84.6248 12.6268 84.2175 13.2888C83.8181 13.9427 83.6204 14.6882 83.6244 15.5253L83.6801 27.261L80.8307 27.2745Z" fill="white"/>
<path d="M105.099 2.43164L111.716 2.4002L108.995 19.365C108.729 20.9762 108.1 22.3958 107.108 23.624C106.115 24.8442 104.86 25.8 103.342 26.4914C101.824 27.1748 100.147 27.5208 98.3121 27.5295C96.7345 27.537 95.3326 27.27 94.1065 26.7285C92.8885 26.1788 91.9828 25.3138 91.3896 24.1334C90.8044 22.9449 90.6683 21.4 90.9812 19.4989L97.6942 19.467C97.6167 20.0952 97.6353 20.6224 97.75 21.0484C97.8647 21.4665 98.0755 21.7834 98.3824 21.9993C98.6893 22.2071 99.0922 22.3098 99.5913 22.3075C100.09 22.3051 100.528 22.1943 100.906 21.9752C101.283 21.748 101.595 21.4206 101.843 20.9928C102.09 20.5569 102.269 20.0248 102.379 19.3965L105.099 2.43164ZM116.127 27.3966C114.951 27.4022 113.94 27.2138 113.093 26.8314C112.254 26.441 111.64 25.8483 111.25 25.0532C110.868 24.2501 110.778 23.2363 110.982 22.0119C111.146 20.9969 111.46 20.1301 111.923 19.4115C112.387 18.6929 112.963 18.1025 113.653 17.6405C114.343 17.1784 115.119 16.8245 115.979 16.579C116.847 16.3253 117.764 16.16 118.729 16.0829C119.775 15.9975 120.624 15.8928 121.275 15.769C121.927 15.6452 122.413 15.4778 122.734 15.267C123.055 15.0562 123.247 14.7736 123.309 14.4191L123.309 14.3708C123.379 13.8875 123.249 13.5179 122.918 13.2619C122.594 13.0058 122.143 12.8792 121.563 12.8819C120.936 12.8849 120.393 13.0243 119.935 13.3002C119.486 13.576 119.178 14.0041 119.012 14.5844L112.878 14.6136C113.131 13.4855 113.653 12.4446 114.445 11.491C115.246 10.5294 116.308 9.75962 117.634 9.18182C118.967 8.59593 120.56 8.29859 122.411 8.28979C123.731 8.28352 124.891 8.43497 125.89 8.74415C126.89 9.04527 127.717 9.47198 128.372 10.0243C129.034 10.5685 129.5 11.2102 129.769 11.9495C130.046 12.6806 130.115 13.4772 129.974 14.3392L127.909 27.0508L121.679 27.0804L122.101 24.4704L121.957 24.4711C121.477 25.1656 120.936 25.7276 120.335 26.1571C119.741 26.5865 119.09 26.8995 118.383 27.0961C117.684 27.2926 116.932 27.3927 116.127 27.3966ZM119.004 23.1811C119.503 23.1788 119.994 23.0718 120.476 22.8602C120.958 22.6487 121.371 22.3448 121.715 21.9488C122.059 21.5527 122.278 21.0728 122.372 20.5089L122.607 18.9623C122.43 19.0356 122.233 19.1049 122.016 19.1703C121.807 19.2277 121.586 19.2851 121.353 19.3425C121.128 19.3999 120.886 19.4534 120.629 19.5029C120.38 19.5524 120.122 19.6019 119.857 19.6515C119.326 19.7345 118.88 19.8694 118.519 20.0563C118.157 20.2351 117.877 20.4578 117.677 20.7244C117.477 20.9829 117.353 21.2732 117.306 21.5954C117.236 22.1029 117.355 22.4967 117.662 22.777C117.977 23.0492 118.425 23.1839 119.004 23.1811ZM131.094 27.0357L134.096 8.47575L140.568 8.445L140.005 11.9733L140.198 11.9724C140.748 10.6658 141.439 9.70863 142.274 9.10097C143.108 8.49331 144.02 8.18712 145.01 8.18242C145.3 8.18104 145.578 8.20387 145.843 8.2509C146.117 8.28985 146.387 8.34491 146.653 8.41609L145.714 14.1195C145.4 14.0002 145.009 13.9176 144.542 13.8715C144.075 13.8174 143.66 13.7912 143.298 13.7929C142.654 13.7959 142.051 13.9477 141.489 14.2482C140.935 14.5406 140.462 14.9534 140.07 15.4865C139.686 16.0115 139.432 16.6285 139.306 17.3375L137.758 27.004L131.094 27.0357ZM168.093 8.31422L158.86 26.9038L151.133 26.9405L147.906 8.41014L154.667 8.37801L155.691 20.6403L155.884 20.6394L160.849 8.34864L168.093 8.31422ZM166.986 26.8651L169.989 8.30522L176.653 8.27355L173.651 26.8335L166.986 26.8651ZM173.602 6.35621C172.7 6.36049 171.97 6.06614 171.412 5.47314C170.854 4.87209 170.645 4.15669 170.786 3.32694C170.927 2.48109 171.366 1.76261 172.104 1.1715C172.842 0.57235 173.661 0.270631 174.563 0.266347C175.472 0.262026 176.198 0.556402 176.74 1.14948C177.282 1.7345 177.487 2.44992 177.354 3.29573C177.229 4.12541 176.798 4.84385 176.06 5.45105C175.331 6.05017 174.511 6.35189 173.602 6.35621ZM195.967 14.2188L189.978 14.2472C190.009 13.8607 189.939 13.531 189.768 13.2582C189.598 12.9853 189.359 12.7772 189.053 12.6337C188.754 12.4903 188.416 12.4194 188.038 12.4212C187.378 12.4243 186.779 12.5761 186.241 12.8765C185.703 13.1688 185.403 13.5526 185.341 14.0278C185.301 14.2131 185.363 14.3859 185.524 14.5461C185.686 14.7063 186.109 14.8532 186.794 14.9868L190.468 15.6455C192.305 15.9748 193.644 16.5843 194.485 17.4737C195.334 18.3551 195.646 19.5248 195.419 20.9828C195.208 22.2476 194.658 23.3369 193.769 24.2506C192.88 25.1644 191.748 25.8701 190.374 26.3677C189.008 26.8571 187.496 27.1058 185.838 27.1136C182.916 27.1275 180.724 26.5544 179.261 25.3942C177.807 24.2339 177.139 22.7117 177.259 20.8276L183.731 20.7969C183.75 21.4005 183.953 21.8543 184.341 22.1583C184.737 22.4543 185.261 22.6088 185.913 22.6218C186.621 22.6425 187.24 22.4987 187.77 22.1903C188.3 21.8739 188.596 21.4821 188.658 21.015C188.681 20.7492 188.563 20.5485 188.305 20.4129C188.055 20.2773 187.575 20.1427 186.866 20.0092L183.676 19.4449C181.839 19.1236 180.5 18.4699 179.658 17.4838C178.816 16.4897 178.521 15.2193 178.771 13.6726C178.974 12.4401 179.468 11.4034 180.253 10.5626C181.046 9.72168 182.089 9.08485 183.383 8.65209C184.677 8.21128 186.173 7.98684 187.872 7.97877C190.649 7.96557 192.752 8.51501 194.182 9.62707C195.62 10.731 196.215 12.2616 195.967 14.2188Z" fill="#D5A2FD"/>
</svg>
